<?xml version="1.0" encoding="iso-8859-1"?>
<!-- Generator: Adobe Illustrator 16.0.4, SVG Export Plug-In . SVG Version: 6.00 Build 0)  -->
<!DOCTYPE svg PUBLIC "-//W3C//DTD SVG 1.1//EN" "http://www.w3.org/Graphics/SVG/1.1/DTD/svg11.dtd">
<svg version="1.1" id="Layer_1" xmlns="http://www.w3.org/2000/svg" xmlns:xlink="http://www.w3.org/1999/xlink" x="0px" y="0px"
	 width="80px" height="80px" viewBox="0 0 80 80" style="enable-background:new 0 0 80 80;" xml:space="preserve">
<g>
	<path style="fill:#FFFFFF;" d="M38.751,77.109c0,0,7.131-33.023,2.377-75.978H11.672v75.978H38.751z"/>
	<path style="opacity:0.35;" d="M12.398,9.351c0,0,6.974,39.987,8.315,42.289c1.342,2.3,2.785,4.575,8.076,7.595
		c3.253,1.856,11.737,6.65,17.398,9.825c2.323,1.303,5.165,1.687,5.165,1.687s0.729-7.834,5.761-11.707
		c-3.377-2.084-4.271-3.176-7.45-4.962c-3.178-1.786-13.905-8.3-13.995-9.362c-0.126-1.513-0.013-1.948-0.212-6.116
		c-0.163-3.416-0.379-26.604-1.513-30.758c0,0-4.536-2.644-9.45-0.378C19.58,9.729,15.422,10.107,12.398,9.351z"/>
	<path style="opacity:0.35;" d="M57.114,59.039l9.05,4.696c0,0-4.075,2.16-5.518,10.774c-5.345-1.466-5.555-2.093-9.293-3.764
		C52.786,60.272,57.114,59.039,57.114,59.039z"/>
	<path style="fill:none;stroke:#000000;stroke-width:0.806;stroke-miterlimit:10;" d="M40.924,1.132
		c4.754,42.954-2.377,75.978-2.377,75.978"/>
	<path style="fill:#FFFFFF;stroke:#000000;stroke-width:0.806;stroke-miterlimit:10;" d="M14.087,8.458
		c0,0,6.974,39.987,8.315,42.288c1.342,2.3,2.785,4.575,8.076,7.595c3.253,1.857,11.737,6.651,17.399,9.825
		c2.323,1.304,5.164,1.688,5.164,1.688s0.73-7.835,5.761-11.708c-3.376-2.083-4.271-3.175-7.449-4.961
		c-3.178-1.786-13.905-8.3-13.995-9.362c-0.125-1.513-0.013-1.949-0.212-6.116c-0.163-3.416-0.379-26.604-1.513-30.758
		c0,0-4.536-2.644-9.45-0.378C21.27,8.836,17.111,9.214,14.087,8.458z"/>
	<path style="fill:#FFFFFF;stroke:#000000;stroke-width:0.806;stroke-miterlimit:10;" d="M58.803,58.146l9.051,4.696
		c0,0-4.075,2.161-5.518,10.775c-5.345-1.466-5.555-2.093-9.294-3.764C54.476,59.38,58.803,58.146,58.803,58.146z"/>
	<path style="fill:none;stroke:#000000;stroke-width:0.806;stroke-miterlimit:10;" d="M68.161,62.871c0,0-0.428,5.115-5.785,10.886"
		/>
	<path style="fill:#818385;stroke:#000000;stroke-width:0.806;stroke-miterlimit:10;" d="M19.982,40.299
		c2.062-1.614,14.569,5.748,11.633,18.687c0,0-7.572-3.291-9.646-9.593C20.257,44.188,20.302,42.136,19.982,40.299z"/>
	<path style="fill:none;stroke:#939598;stroke-width:0.806;stroke-miterlimit:10;" d="M20.587,41.425
		c3.13-0.721,12.665,8.995,9.728,16.45"/>
	
		<line style="fill:none;stroke:#000000;stroke-width:0.806;stroke-miterlimit:10;" x1="53.341" y1="67.273" x2="44.787" y2="62.824"/>
</g>
<rect style="fill:none;" width="80" height="80"/>
<g>
</g>
<g>
</g>
<g>
</g>
<g>
</g>
<g>
</g>
<g>
</g>
<g>
</g>
<g>
</g>
<g>
</g>
<g>
</g>
<g>
</g>
<g>
</g>
<g>
</g>
<g>
</g>
<g>
</g>
</svg>
