<?xml version="1.0" encoding="iso-8859-1"?>
<!-- Generator: Adobe Illustrator 16.0.4, SVG Export Plug-In . SVG Version: 6.00 Build 0)  -->
<!DOCTYPE svg PUBLIC "-//W3C//DTD SVG 1.1//EN" "http://www.w3.org/Graphics/SVG/1.1/DTD/svg11.dtd">
<svg version="1.1" id="Layer_1" xmlns="http://www.w3.org/2000/svg" xmlns:xlink="http://www.w3.org/1999/xlink" x="0px" y="0px"
	 width="80px" height="80px" viewBox="0 0 80 80" style="enable-background:new 0 0 80 80;" xml:space="preserve">
<g>
	<path style="opacity:0.35;" d="M76.716,41.616c0.048,0.025,0.097,0.046,0.142,0.073c-0.061-0.04-0.129-0.085-0.191-0.125
		c-0.138-0.144-0.309-0.256-0.512-0.331C69.936,37.209,56.246,28.44,56.246,28.44s-0.851-0.7-2.243-1.31
		c-0.961-0.812-3.862-3.135-8.508-5.733c-5.779-3.234-12.021-6.929-12.021-6.929L3.187,29.48c0,0,3.237,3.695,7.86,6.467
		c4.39,2.631,10.446,9.216,12.432,11.851c0.107,0.231,0.262,0.401,0.375,0.505c0.155,0.194,0.318,0.337,0.489,0.434L45.033,67.7
		c0,0,0.617,0.271,3.314-1.424c9.363-5.462,25.508-19.399,27.589-21.708C77.134,43.239,77.206,42.194,76.716,41.616z"/>
	<path style="fill:#FFFFFF;stroke:#000000;stroke-width:0.6239;stroke-miterlimit:10;" d="M3.051,27.294c0,0,3.236,3.695,7.86,6.467
		c4.624,2.771,11.098,9.93,12.716,12.24c1.618,2.309,4.393-1.617,4.393-1.617l16.415-13.856l9.79-5.272c0,0-3.085-2.811-8.865-6.043
		c-5.779-3.233-12.022-6.928-12.022-6.928"/>
	
		<line style="fill:none;stroke:#939598;stroke-width:0.6239;stroke-miterlimit:10;" x1="34.262" y1="30.989" x2="17.847" y2="19.904"/>
	
		<line style="fill:none;stroke:#939598;stroke-width:0.6239;stroke-miterlimit:10;" x1="40.042" y1="27.294" x2="24.321" y2="16.209"/>
	
		<line style="fill:none;stroke:#939598;stroke-width:0.6239;stroke-miterlimit:10;" x1="45.821" y1="26.14" x2="37.267" y2="19.673"/>
	<path style="fill:#818385;stroke:#000000;stroke-width:0.8041;stroke-miterlimit:10;" d="M44.897,65.515
		c0,0,0.616,0.27,3.313-1.423c9.363-5.462,25.509-19.4,27.59-21.709c2.08-2.31,0.771-3.772-1.002-3.388
		c-1.387-0.308-2.774-0.308-2.774-0.308l-9.71,3.772l-5.549,1.155l-2.852,3.926L42.739,59.472
		C42.739,59.472,43.663,64.476,44.897,65.515z"/>
	<path style="fill:none;stroke:#939598;stroke-width:0.6239;stroke-miterlimit:10;" d="M45.052,63.167c0,0,2.619-1.231,6.318-3.771
		c3.699-2.541,13.18-9.854,16.031-12.24c2.851-2.386,8.399-6.76,7.397-8.16c-0.771-1.077-1.927-1-1.927-1"/>
	<path style="fill:#818385;stroke:#000000;stroke-width:0.8041;stroke-miterlimit:10;" d="M23.857,46.231l21.04,19.283
		c0,0-1.041-1.039,1.04-3.926c2.08-2.887,7.514-9.584,12.6-13.511c0.463-0.345,0-4.503,0-4.503L40.62,27.872
		c0,0-13.063,7.043-17.224,16.512C22.818,45.539,23.857,46.231,23.857,46.231z"/>
	<g>
		<defs>
			<path id="SVGID_1_" d="M24.259,46.197l19.337,17.787l8.139-10.997l5.17-5.833l2.776-3.729l-6.894-0.957l-6.701-4.495
				c0,0-6.606-6.311-8.807-6.12c-2.204,0.191-8.33,6.885-8.33,6.885S24.259,45.433,24.259,46.197z"/>
		</defs>
		<clipPath id="SVGID_2_">
			<use xlink:href="#SVGID_1_"  style="overflow:visible;"/>
		</clipPath>
		<g style="clip-path:url(#SVGID_2_);">
			<path style="fill:none;stroke:#939598;stroke-width:0.6239;stroke-miterlimit:10;" d="M25.323,47.618
				c0,0,0.155-1.617,2.081-4.619c2.927-5.004,10.018-9.854,10.018-9.854"/>
			<path style="fill:none;stroke:#939598;stroke-width:0.6239;stroke-miterlimit:10;" d="M42.509,63.476c0,0-0.31-1.309,1.618-4.08
				c2.929-4.157,7.167-8.776,10.942-11.701c1.002-0.77,1.233-1.463,1.079-2.387c-0.153-0.924-0.385-1.924-0.385-1.924"/>
		</g>
	</g>
	<path style="fill:#818385;stroke:#000000;stroke-width:0.8041;stroke-miterlimit:10;" d="M34.031,31.144l16.53,11.971l7.412,5.054
		c0,0,5.072-3.899,6.112-4.478c1.041-0.576,8.937-6.381,12.636-4.187C70.903,35.731,56.11,26.254,56.11,26.254
		s-2.659-2.193-6.281-2.193C46.208,24.061,40.621,26.563,34.031,31.144z"/>
	<g>
		<defs>
			<polygon id="SVGID_3_" points="74.424,38.356 54.225,25.255 51.544,24.776 40.82,29.08 37.375,31.471 41.778,35.2 51.353,41.989 
				57.504,46.758 62.361,43.042 68.298,39.599 			"/>
		</defs>
		<clipPath id="SVGID_4_">
			<use xlink:href="#SVGID_3_"  style="overflow:visible;"/>
		</clipPath>
		<path style="clip-path:url(#SVGID_4_);fill:none;stroke:#939598;stroke-width:0.6239;stroke-miterlimit:10;" d="M55.687,25.985
			c0,0-2.851-1-6.088,0.155c-3.925,1.4-10.944,5.85-10.944,5.85l13.41,9.468l5.816,3.891c0,0,3.738-3.043,4.973-3.891
			c1.232-0.847,7.477-5.08,11.252-3.695"/>
	</g>
	<path style="fill:none;stroke:#000000;stroke-width:0.6239;stroke-miterlimit:10;" d="M53.171,32.062
		c0.093,0.167,0.07,0.355-0.05,0.423l-3.662,2.041c-0.12,0.068-0.293-0.012-0.387-0.178l0,0c-0.092-0.167-0.069-0.355,0.051-0.423
		l3.661-2.041C52.904,31.817,53.078,31.897,53.171,32.062L53.171,32.062z"/>
	<g>
		
			<ellipse style="fill:#FFFFFF;stroke:#000000;stroke-width:0.6239;stroke-miterlimit:10;" cx="49.521" cy="34.685" rx="2.504" ry="1.578"/>
		
			<ellipse style="fill:#FFFFFF;stroke:#000000;stroke-width:0.6239;stroke-miterlimit:10;" cx="49.521" cy="34.3" rx="2.504" ry="1.578"/>
		
			<ellipse style="fill:#818385;stroke:#000000;stroke-width:0.8041;stroke-miterlimit:10;" cx="49.521" cy="33.916" rx="2.504" ry="1.578"/>
		
			<ellipse style="fill:none;stroke:#000000;stroke-width:0.6239;stroke-miterlimit:10;" cx="49.522" cy="33.876" rx="1.387" ry="0.73"/>
	</g>
</g>
<rect style="fill:none;" width="80" height="80"/>
<g>
</g>
<g>
</g>
<g>
</g>
<g>
</g>
<g>
</g>
<g>
</g>
<g>
</g>
<g>
</g>
<g>
</g>
<g>
</g>
<g>
</g>
<g>
</g>
<g>
</g>
<g>
</g>
<g>
</g>
</svg>
