<?xml version="1.0" encoding="iso-8859-1"?>
<!-- Generator: Adobe Illustrator 16.0.4, SVG Export Plug-In . SVG Version: 6.00 Build 0)  -->
<!DOCTYPE svg PUBLIC "-//W3C//DTD SVG 1.1//EN" "http://www.w3.org/Graphics/SVG/1.1/DTD/svg11.dtd">
<svg version="1.1" id="Layer_1" xmlns="http://www.w3.org/2000/svg" xmlns:xlink="http://www.w3.org/1999/xlink" x="0px" y="0px"
	 width="80px" height="80px" viewBox="0 0 80 80" style="enable-background:new 0 0 80 80;" xml:space="preserve">
<path style="opacity:0.35;" d="M21.062,44.706c0,0,15.341,9.711,35.623,1.219c20.279-8.493,1.418-19.694-15.73-19.694
	C23.803,26.231,7.971,31.631,21.062,44.706z"/>
<path style="fill:#E6E7E8;stroke:#000000;stroke-width:0.9784;stroke-miterlimit:10;" d="M12.553,18.27
	c5.452-3.601,14.042-3.937,27.348-3.937c13.303,0,27.955,0.948,30.158,5.708c0,0,2.144,17.583-12.238,11.533
	c-1.08-0.453-12.186-1.247-17.648-1.158c-8.188,0.132-16.218,0.236-17.622,1.848c-2.811,3.231-7.287-1.573-8.275-3.288l-2.956-7.015
	L12.553,18.27"/>
<path style="fill:#FFFFFF;stroke:#000000;stroke-width:0.9784;stroke-linejoin:round;stroke-miterlimit:10;" d="M30.043,47.785
	c0,0,3.768,1.598,9.135,1.598c-1.333-7.978-1.009-9.799-1.93-14.922c-3.801,6.286-6.503,11.392-6.503,11.392L30.043,47.785"/>
<path style="fill:#FFFFFF;stroke:#000000;stroke-width:0.9784;stroke-linejoin:round;stroke-miterlimit:10;" d="M52.56,47.986
	l-10.414,1.396c0,0,0.85-8.934,1.255-14.597L52.56,47.986"/>
<path style="fill:none;stroke:#939598;stroke-width:0.9784;stroke-miterlimit:10;" d="M19.072,27.963c0,0,3.277-1.732,21.882-1.732
	c18.603,0,21.104,1.851,21.104,1.851"/>
<path style="fill:#FFFFFF;stroke:#000000;stroke-width:0.9784;stroke-miterlimit:10;" d="M37.248,34.461
	c0,0,0.068,0.544-2.394,4.729c-2.466,4.185-14.291,24.681-14.291,24.681S1.22,49.028,3.188,42.388
	c1.973-6.645,6.399-22.158,9.366-24.118c0,0-1.724,6.153,5.42,9.227C25.324,30.666,26.136,30.481,37.248,34.461z"/>
<path style="fill:none;stroke:#939598;stroke-width:0.9784;stroke-miterlimit:10;" d="M3.712,40.278c0,0,3.48,7.224,16.056,18.899
	c6.933-13.062,12.894-24.094,13.994-25.664"/>
<rect style="fill:none;" width="80" height="80"/>
<path style="fill:#FFFFFF;stroke:#000000;stroke-width:0.9784;stroke-miterlimit:10;" d="M55.161,52.398l14.972,2.542
	c4.203-5.4,8.302-11.615,8.017-14.051c0-1.23-5.326-16.166-7.687-20.65c-0.502-0.952-1.439-1.703-2.239-2.133
	c-0.469-0.256-0.823-0.412-0.823-0.412s4.051,4.152-0.584,7.445c-8.855,6.289-23.063,9.719-23.063,9.719
	c1.247,2.094,3.074,4.831,3.074,4.831L55.161,52.398z"/>
<path style="fill:none;stroke:#939598;stroke-width:0.9784;stroke-miterlimit:10;" d="M47.155,34.2l12.143,18.703l3.729,0.611
	l4.471,0.673c0.584-0.369,7.892-11.269,9.467-16.755"/>
<polygon style="fill:#818385;stroke:#000000;stroke-width:0.978;stroke-linejoin:round;stroke-miterlimit:10;" points="
	55.161,52.398 63.881,43.576 70.133,54.94 "/>
<g>
</g>
<g>
</g>
<g>
</g>
<g>
</g>
<g>
</g>
<g>
</g>
<g>
</g>
<g>
</g>
<g>
</g>
<g>
</g>
<g>
</g>
<g>
</g>
<g>
</g>
<g>
</g>
<g>
</g>
</svg>
