<?xml version="1.0" encoding="iso-8859-1"?>
<!-- Generator: Adobe Illustrator 16.0.4, SVG Export Plug-In . SVG Version: 6.00 Build 0)  -->
<!DOCTYPE svg PUBLIC "-//W3C//DTD SVG 1.1//EN" "http://www.w3.org/Graphics/SVG/1.1/DTD/svg11.dtd">
<svg version="1.1" id="Layer_1" xmlns="http://www.w3.org/2000/svg" xmlns:xlink="http://www.w3.org/1999/xlink" x="0px" y="0px"
	 width="80px" height="80px" viewBox="0 0 80 80" style="enable-background:new 0 0 80 80;" xml:space="preserve">
<rect style="fill:none;" width="80" height="80"/>
<path style="opacity:0.35;" d="M34.513,10.7l-11.659,5.251c0,0,0.591,14.684-1.337,17.965c0.975,15.964-0.785,38.216-0.785,38.216
	s3.159,5.041,20.622,5.041c17.464,0,20.003-5.041,20.003-5.041s-1.807-17.734-2.07-23.234c-0.015-0.338,1.342,1.824,1.95,2.19
	c0.15,0.089,6.706-1.46,9.874-4.748c-9.194-22.075,0.974,1.121-0.61-2.68l-8.652,4.385c0,0-0.761,0.608-4.146-5.846
	c-7.044-8.989-10.449-14.027-10.271-15.687c-0.64-1.143,0.791-15.169,0.791-15.169L34.513,10.7z"/>
<path style="fill:#939598;stroke:#000000;stroke-width:0.9769;stroke-miterlimit:10;" d="M55.073,12.764h0.962
	c0,0,2.577,2.511,4.412,5.57c2.427,4.046,2.295,3.913,8.347,20.579c0,0,1.151,3.154,1.586,4.259
	c0.439,1.106-8.228,6.709-9.828,3.946C58.949,44.358,57,38.751,57,38.751l-1.927-2.567l-1.34-17.655l1.649-5.423l0.152-0.201"/>
<path style="fill:none;stroke:#000000;stroke-width:0.9769;stroke-miterlimit:10;" d="M59.436,43.7l6.082-3.39l-2.188-4.824
	c0,0,0.428-1.494,3.098-1.921"/>
<line style="fill:none;stroke:#000000;stroke-width:0.9769;stroke-miterlimit:10;" x1="65.659" y1="40.593" x2="68.036" y2="45.457"/>
<path style="opacity:0.35;" d="M9.673,69.274c0.326,0.301,1.402,2.758,1.402,2.758s6.931-3.818,8.92-5.837
	c0.904-0.916-5.537-15.514-5.537-15.514l5.688-8.91l-1.975-2.54l-6.327,10.833l5.229,14.288l-4.769,4.147L9.673,69.274z"/>
<path style="fill:#939598;stroke:#000000;stroke-width:0.9769;stroke-miterlimit:10;" d="M11.791,50.23l2.998,9.727l2.327,4.072
	c0,0-2.569,4.02-7.273,5.52C5.236,62.043,4.459,59.331,4.118,58.07C5,61.342,5.352,31.741,5.236,32.493
	c0,0,13.774-19.852,14.5-20.178c0.416-0.186,0.843-0.216,1.765-0.652c0.921-0.437-0.797,16.034-0.797,16.034l-1.117,8.574
	l-0.76,0.797L11.791,50.23z"/>
<line style="fill:none;stroke:#000000;stroke-width:0.9769;stroke-miterlimit:10;" x1="8.383" y1="39.759" x2="11.791" y2="50.23"/>
<path style="fill:none;stroke:#000000;stroke-width:0.9769;stroke-miterlimit:10;" d="M7.776,65.695
	c3.046-1.592,7.559-5.589,7.559-5.589"/>
<path style="fill:#FFFFFF;stroke:#000000;stroke-width:0.9769;stroke-miterlimit:10;" d="M31.302,7.219l-11.66,5.251
	c0,0,0.592,22.258-1.336,25.541c0.975,15.963-0.785,30.639-0.785,30.639s3.159,5.042,20.62,5.042
	c17.463,0,20.005-5.042,20.005-5.042s-2.591-10.261-1.21-29.792c-1.936-10.924-1.215-22.938-0.858-26.219
	c-0.642-1.142-11.067-4.778-11.067-4.778L31.302,7.219z"/>
<path style="fill:#FFFFFF;stroke:#000000;stroke-width:0.9769;stroke-miterlimit:10;" d="M37.837,14.042l-8.106,2.062
	c0,0-1.517-3.769-0.933-8.086l1.305-3.854c1.926-1.922,8.009-1.538,8.722-1.538c0.714,0,5.128-0.059,6.211,1.508
	c1.085,1.565,1.535,4.454,1.535,4.454s-0.397,7.628-1.182,7.516C43.499,15.835,37.837,14.042,37.837,14.042z"/>
<path style="fill:none;stroke:#000000;stroke-width:0.9769;stroke-miterlimit:10;" d="M37.837,14.042c0,0-5.424-4.101-7.734-9.878"
	/>
<path style="fill:none;stroke:#000000;stroke-width:0.9769;stroke-miterlimit:10;" d="M37.837,14.042
	c4.664-3.446,7.046-10.093,7.046-10.093"/>
<g>
</g>
<g>
</g>
<g>
</g>
<g>
</g>
<g>
</g>
<g>
</g>
<g>
</g>
<g>
</g>
<g>
</g>
<g>
</g>
<g>
</g>
<g>
</g>
<g>
</g>
<g>
</g>
<g>
</g>
</svg>
