<?xml version="1.0" encoding="iso-8859-1"?>
<!-- Generator: Adobe Illustrator 16.0.4, SVG Export Plug-In . SVG Version: 6.00 Build 0)  -->
<!DOCTYPE svg PUBLIC "-//W3C//DTD SVG 1.1//EN" "http://www.w3.org/Graphics/SVG/1.1/DTD/svg11.dtd">
<svg version="1.1" id="Layer_1" xmlns="http://www.w3.org/2000/svg" xmlns:xlink="http://www.w3.org/1999/xlink" x="0px" y="0px"
	 width="80px" height="80px" viewBox="0 0 80 80" style="enable-background:new 0 0 80 80;" xml:space="preserve">
<g>
	<path style="opacity:0.35;" d="M21.038,44.421c0,0,15.291,9.679,35.507,1.214c20.216-8.466,1.414-19.631-15.68-19.631
		C23.768,26.004,7.989,31.388,21.038,44.421z"/>
	<path style="fill:#818385;stroke:#000000;stroke-width:0.9753;stroke-miterlimit:10;" d="M12.558,18.069
		c5.432-3.59,13.998-3.925,27.258-3.925c13.259,0,27.866,0.945,30.063,5.69c0,0,2.136,17.526-12.2,11.496
		c-1.075-0.452-12.147-1.243-17.592-1.154c-8.161,0.132-16.165,0.235-17.563,1.842c-2.802,3.221-7.264-1.568-8.248-3.276
		l-2.948-6.993L12.558,18.069"/>
	<path style="fill:#818385;stroke:#000000;stroke-width:0.9753;stroke-linejoin:round;stroke-miterlimit:10;" d="M29.99,47.489
		c0,0,3.755,1.592,9.104,1.592c-1.327-7.951-1.005-9.767-1.923-14.874c-3.789,6.265-6.483,11.355-6.483,11.355L29.99,47.489"/>
	<path style="fill:#818385;stroke:#000000;stroke-width:0.9753;stroke-linejoin:round;stroke-miterlimit:10;" d="M52.436,47.689
		l-10.382,1.392c0,0,0.848-8.904,1.253-14.55L52.436,47.689"/>
	<path style="fill:none;stroke:#939598;stroke-width:0.9753;stroke-miterlimit:10;" d="M19.054,27.73c0,0,3.265-1.727,21.811-1.727
		c18.544,0,21.037,1.845,21.037,1.845"/>
	<path style="fill:#818385;stroke:#000000;stroke-width:0.9753;stroke-miterlimit:10;" d="M70.279,20.032
		c2.355,4.47,7.663,19.357,7.663,20.584c0.489,4.168-11.907,19.448-15.593,22.639L46.721,39.419c0,0-1.822-2.728-3.064-4.815
		c0,0,14.162-3.418,22.989-9.687c4.619-3.282,0.582-7.421,0.582-7.421s0.353,0.155,0.822,0.411
		C68.846,18.335,69.779,19.083,70.279,20.032z"/>
	<path style="fill:#818385;stroke:#000000;stroke-width:0.9753;stroke-miterlimit:10;" d="M37.172,34.208
		c0,0,0.068,0.543-2.386,4.714c-2.458,4.171-14.245,24.602-14.245,24.602S1.259,48.729,3.222,42.108
		c1.966-6.623,6.377-22.086,9.335-24.039c0,0-1.72,6.133,5.401,9.196C25.286,30.425,26.096,30.241,37.172,34.208z"/>
	<path style="fill:none;stroke:#939598;stroke-width:0.9753;stroke-miterlimit:10;" d="M3.744,40.007c0,0,3.469,7.201,16.004,18.838
		c6.91-13.02,12.852-24.016,13.948-25.581"/>
	<path style="fill:none;stroke:#939598;stroke-width:0.9753;stroke-miterlimit:10;" d="M47.047,33.947l16.24,25.014
		c0,0,10.908-12.855,13.474-21.792"/>
</g>
<rect style="fill:none;" width="80" height="80"/>
<g>
</g>
<g>
</g>
<g>
</g>
<g>
</g>
<g>
</g>
<g>
</g>
<g>
</g>
<g>
</g>
<g>
</g>
<g>
</g>
<g>
</g>
<g>
</g>
<g>
</g>
<g>
</g>
<g>
</g>
</svg>
