<?xml version="1.0" encoding="iso-8859-1"?>
<!-- Generator: Adobe Illustrator 16.0.4, SVG Export Plug-In . SVG Version: 6.00 Build 0)  -->
<!DOCTYPE svg PUBLIC "-//W3C//DTD SVG 1.1//EN" "http://www.w3.org/Graphics/SVG/1.1/DTD/svg11.dtd">
<svg version="1.1" id="Layer_1" xmlns="http://www.w3.org/2000/svg" xmlns:xlink="http://www.w3.org/1999/xlink" x="0px" y="0px"
	 width="80px" height="80px" viewBox="0 0 80 80" style="enable-background:new 0 0 80 80;" xml:space="preserve">
<polygon style="opacity:0.35;" points="34.926,4.55 45.435,4.471 68.099,7.312 68.099,7.312 45.466,26.47 39.937,25.435 "/>
<rect x="32.442" y="5.688" style="opacity:0.35;" width="11.774" height="69.509"/>
<polygon style="fill:#818385;stroke:#000000;stroke-width:0.6091;stroke-miterlimit:10;" points="45.435,30.832 45.435,4.471 
	33.661,4.471 33.661,41.312 "/>
<polygon style="fill:#FFFFFF;stroke:#000000;stroke-width:0.6739;stroke-miterlimit:10;" points="45.435,73.98 45.435,29.479 
	33.661,40.89 33.661,73.98 "/>
<path style="fill:#FFFFFF;stroke:#000000;stroke-width:0.6739;stroke-miterlimit:10;" d="M53.162,27.651
	c10.594-4.719,13.9-5.842,13.9-5.842l1.036-14.498c0,0-3.987,2.006-11.3,7.281c-22.3,16.087-22.838,26.451-22.838,26.451
	S38.478,34.194,53.162,27.651z"/>
<g>
	<circle style="fill:#FFFFFF;stroke:#000000;stroke-width:0.5786;stroke-miterlimit:10;" cx="39.548" cy="14.515" r="1.849"/>
	<circle style="fill:#FFFFFF;stroke:#000000;stroke-width:0.5786;stroke-miterlimit:10;" cx="39.546" cy="14.515" r="0.833"/>
</g>
<g>
	<path style="fill:#FFFFFF;stroke:#000000;stroke-width:0.5786;stroke-miterlimit:10;" d="M41.395,38.634
		c0,1.02-0.823,1.848-1.848,1.848c-1.022,0-1.847-0.828-1.847-1.848s0.825-1.848,1.847-1.848
		C40.571,36.787,41.395,37.614,41.395,38.634z"/>
	<circle style="fill:#FFFFFF;stroke:#000000;stroke-width:0.5786;stroke-miterlimit:10;" cx="39.548" cy="38.634" r="0.833"/>
</g>
<g>
	<path style="fill:#FFFFFF;stroke:#000000;stroke-width:0.5786;stroke-miterlimit:10;" d="M41.395,62.754
		c0,1.02-0.823,1.848-1.848,1.848c-1.022,0-1.847-0.828-1.847-1.848c0-1.021,0.825-1.847,1.847-1.847
		C40.571,60.907,41.395,61.733,41.395,62.754z"/>
	<circle style="fill:#FFFFFF;stroke:#000000;stroke-width:0.5786;stroke-miterlimit:10;" cx="39.548" cy="62.754" r="0.833"/>
</g>
<path style="fill:#FFFFFF;stroke:#000000;stroke-width:0.6739;stroke-miterlimit:10;" d="M65.4,50.023"/>
<path style="fill:none;stroke:#000000;stroke-width:0.4725;stroke-miterlimit:10;" d="M60.861,15.497
	c0.194,0.004,0.349,0.124,0.347,0.264l-0.113,4.282c-0.004,0.141-0.164,0.251-0.357,0.248l0,0c-0.195-0.007-0.352-0.125-0.348-0.266
	l0.113-4.282C60.507,15.603,60.668,15.492,60.861,15.497L60.861,15.497z"/>
<rect style="fill:none;" width="80" height="80"/>
<g>
</g>
<g>
</g>
<g>
</g>
<g>
</g>
<g>
</g>
<g>
</g>
<g>
</g>
<g>
</g>
<g>
</g>
<g>
</g>
<g>
</g>
<g>
</g>
<g>
</g>
<g>
</g>
<g>
</g>
</svg>
