<?xml version="1.0" encoding="iso-8859-1"?>
<!-- Generator: Adobe Illustrator 16.0.4, SVG Export Plug-In . SVG Version: 6.00 Build 0)  -->
<!DOCTYPE svg PUBLIC "-//W3C//DTD SVG 1.1//EN" "http://www.w3.org/Graphics/SVG/1.1/DTD/svg11.dtd">
<svg version="1.1" id="Layer_1" xmlns="http://www.w3.org/2000/svg" xmlns:xlink="http://www.w3.org/1999/xlink" x="0px" y="0px"
	 width="80px" height="80px" viewBox="0 0 80 80" style="enable-background:new 0 0 80 80;" xml:space="preserve">
<rect x="32.945" y="5.688" style="opacity:0.35;" width="11.774" height="69.509"/>
<rect x="34.164" y="4.471" style="fill:#FFFFFF;stroke:#000000;stroke-width:0.6739;stroke-miterlimit:10;" width="11.774" height="69.509"/>
<path style="fill:#818385;stroke:#000000;stroke-width:0.6091;stroke-miterlimit:10;" d="M45.734,73.98
	c0,0,0.137-16.351,1.218-24.77c1.082-8.419,11.991-39.479,11.991-39.479L47.22,6.118c0,0-10.575,31.021-12.041,39.39
	c-1.466,8.37-1.219,28.473-1.219,28.473H45.734z"/>
<g>
	<circle style="fill:none;stroke:#000000;stroke-width:0.5786;stroke-miterlimit:10;" cx="40.27" cy="14.515" r="1.848"/>
	<circle style="fill:none;stroke:#000000;stroke-width:0.5786;stroke-miterlimit:10;" cx="40.268" cy="14.515" r="0.833"/>
</g>
<g>
	<path style="fill:none;stroke:#000000;stroke-width:0.5786;stroke-miterlimit:10;" d="M44.549,38.634
		c0,1.02-0.824,1.848-1.85,1.848c-1.021,0-1.846-0.828-1.846-1.848s0.825-1.848,1.846-1.848
		C43.725,36.787,44.549,37.614,44.549,38.634z"/>
	<path style="fill:none;stroke:#000000;stroke-width:0.5786;stroke-miterlimit:10;" d="M43.534,38.634
		c0,0.459-0.372,0.833-0.835,0.833c-0.459,0-0.831-0.374-0.831-0.833c0-0.458,0.372-0.832,0.831-0.832
		C43.162,37.803,43.534,38.176,43.534,38.634z"/>
</g>
<g>
	<path style="fill:none;stroke:#000000;stroke-width:0.5786;stroke-miterlimit:10;" d="M42.116,62.754
		c0,1.02-0.823,1.848-1.848,1.848c-1.021,0-1.846-0.828-1.846-1.848c0-1.021,0.825-1.847,1.846-1.847
		C41.293,60.907,42.116,61.733,42.116,62.754z"/>
	<circle style="fill:none;stroke:#000000;stroke-width:0.5786;stroke-miterlimit:10;" cx="40.27" cy="62.754" r="0.834"/>
</g>
<path style="fill:#FFFFFF;stroke:#000000;stroke-width:0.6739;stroke-miterlimit:10;" d="M65.401,50.023"/>
<path style="fill:none;stroke:#000000;stroke-width:0.4725;stroke-miterlimit:10;" d="M47.162,15.559
	c0.053-0.188,0.207-0.308,0.342-0.27l4.125,1.168c0.138,0.038,0.203,0.221,0.151,0.408l0,0c-0.054,0.187-0.208,0.307-0.342,0.269
	l-4.127-1.169C47.176,15.928,47.108,15.745,47.162,15.559L47.162,15.559z"/>
<rect style="fill:none;" width="80" height="80"/>
<g>
</g>
<g>
</g>
<g>
</g>
<g>
</g>
<g>
</g>
<g>
</g>
<g>
</g>
<g>
</g>
<g>
</g>
<g>
</g>
<g>
</g>
<g>
</g>
<g>
</g>
<g>
</g>
<g>
</g>
</svg>
